<?xml version="1.0" encoding="UTF-8" standalone="no"?>
<!-- Generator: Adobe Illustrator 19.0.0, SVG Export Plug-In . SVG Version: 6.00 Build 0)  -->

<svg
   xmlns:dc="http://purl.org/dc/elements/1.1/"
   xmlns:cc="http://creativecommons.org/ns#"
   xmlns:rdf="http://www.w3.org/1999/02/22-rdf-syntax-ns#"
   xmlns:svg="http://www.w3.org/2000/svg"
   xmlns="http://www.w3.org/2000/svg"
   xmlns:xlink="http://www.w3.org/1999/xlink"
   xmlns:sodipodi="http://sodipodi.sourceforge.net/DTD/sodipodi-0.dtd"
   xmlns:inkscape="http://www.inkscape.org/namespaces/inkscape"
   version="1.1"
   id="Layer_1"
   x="0px"
   y="0px"
   viewBox="0 0 200 200"
   xml:space="preserve"
   sodipodi:docname="olli_3.svg"
   width="200"
   height="200"
   inkscape:version="0.92.1 r15371"><metadata
     id="metadata3777"><rdf:RDF><cc:Work
         rdf:about=""><dc:format>image/svg+xml</dc:format><dc:type
           rdf:resource="http://purl.org/dc/dcmitype/StillImage" /><dc:title /></cc:Work></rdf:RDF></metadata><defs
     id="defs3775" /><sodipodi:namedview
     pagecolor="#ffffff"
     bordercolor="#666666"
     borderopacity="1"
     objecttolerance="10"
     gridtolerance="10"
     guidetolerance="10"
     inkscape:pageopacity="0"
     inkscape:pageshadow="2"
     inkscape:window-width="1920"
     inkscape:window-height="1028"
     id="namedview3773"
     showgrid="false"
     inkscape:zoom="2.9826389"
     inkscape:cx="114.1816"
     inkscape:cy="132.41965"
     inkscape:window-x="1358"
     inkscape:window-y="-8"
     inkscape:window-maximized="1"
     inkscape:current-layer="Layer_1"
     showguides="true"
     inkscape:guide-bbox="true"><sodipodi:guide
       position="100.2468,250.44936"
       orientation="1,0"
       id="guide4442"
       inkscape:locked="false" /><sodipodi:guide
       position="78.454016,99.576251"
       orientation="0,1"
       id="guide4444"
       inkscape:locked="false" /><sodipodi:guide
       position="31.515716,187.08265"
       orientation="0,1"
       id="guide4583"
       inkscape:locked="false" /><sodipodi:guide
       position="40.232829,12.069849"
       orientation="0,1"
       id="guide4585"
       inkscape:locked="false" /></sodipodi:namedview><style
     type="text/css"
     id="style3680">
	.st0{clip-path:url(#XMLID_67_);}
	.st1{opacity:0.32;clip-path:url(#XMLID_69_);}
	.st2{clip-path:url(#XMLID_70_);fill:#4C4C4C;}
	.st3{clip-path:url(#XMLID_70_);fill:#FFFFFF;}
	.st4{clip-path:url(#XMLID_70_);}
	.st5{clip-path:url(#XMLID_71_);fill:url(#XMLID_73_);}
	.st6{clip-path:url(#XMLID_69_);fill:#26CAD3;}
	.st7{clip-path:url(#XMLID_69_);fill:#010101;}
	.st8{clip-path:url(#XMLID_69_);fill:#565656;}
	.st9{clip-path:url(#XMLID_69_);fill:#FFFFFF;}
</style><g
     id="XMLID_66_"
     transform="matrix(1.284447,0,0,1.3609082,35.632591,12.917348)"><defs
       id="defs3683"><rect
         id="XMLID_1_"
         x="0"
         y="0"
         width="102.5"
         height="128.60001" /></defs><clipPath
       id="XMLID_67_"><use
         xlink:href="#XMLID_1_"
         style="overflow:visible"
         id="use3685"
         x="0"
         y="0"
         width="100%"
         height="100%" /></clipPath><g
       id="XMLID_68_"
       class="st0"
       clip-path="url(#XMLID_67_)"><defs
         id="defs3689"><rect
           id="XMLID_2_"
           x="0"
           y="0"
           width="102.5"
           height="128.60001" /></defs><clipPath
         id="XMLID_69_"><use
           xlink:href="#XMLID_2_"
           style="overflow:visible"
           id="use3691"
           x="0"
           y="0"
           width="100%"
           height="100%" /></clipPath><g
         id="XMLID_142_"
         class="st1"
         clip-path="url(#XMLID_69_)"
         style="opacity:0.32000002"><g
           id="XMLID_143_"><defs
             id="defs3695"><rect
               id="XMLID_59_"
               x="13.5"
               y="8.5"
               width="71.5"
               height="69.5" /></defs><clipPath
             id="XMLID_70_"><use
               xlink:href="#XMLID_59_"
               style="overflow:visible"
               id="use3697"
               x="0"
               y="0"
               width="100%"
               height="100%" /></clipPath><path
             id="XMLID_64_"
             class="st2"
             d="m 19.7,13 c 0,0 20.2,-10.1 62.8,-0.3 1.1,47.8 0.8,64.3 0.8,64.3 L 19,77.6 Z"
             clip-path="url(#XMLID_70_)"
             inkscape:connector-curvature="0"
             style="fill:#4c4c4c" /><path
             id="XMLID_63_"
             class="st3"
             d="M 64.8,9.8 C 64.1,9.7 63.5,9.7 62.8,9.6 L 23.3,77.4 h 2.1 z"
             clip-path="url(#XMLID_70_)"
             inkscape:connector-curvature="0"
             style="fill:#ffffff" /><path
             id="XMLID_62_"
             class="st3"
             d="M 58.6,9.8 C 57.9,9.7 53.8,9.7 53.1,9.6 L 13.5,77.4 h 5.6 z"
             clip-path="url(#XMLID_70_)"
             inkscape:connector-curvature="0"
             style="fill:#ffffff" /><g
             id="XMLID_145_"
             class="st4"
             clip-path="url(#XMLID_70_)"><defs
               id="defs3704"><polygon
                 id="XMLID_60_"
                 points="61.6,77.9 84.8,77.8 85.1,34.6 83.5,34.6 " /></defs><clipPath
               id="XMLID_71_"><use
                 xlink:href="#XMLID_60_"
                 style="overflow:visible"
                 id="use3706"
                 x="0"
                 y="0"
                 width="100%"
                 height="100%" /></clipPath><linearGradient
               id="XMLID_73_"
               gradientUnits="userSpaceOnUse"
               x1="167.39909"
               y1="163.8591"
               x2="170.25819"
               y2="163.8591"
               gradientTransform="matrix(7.781,7.781,7.781,-7.781,-2509.9177,22.9616)"><stop
                 offset="0"
                 style="stop-color:#FFFFFF"
                 id="stop3709" /><stop
                 offset="0.1217"
                 style="stop-color:#D5D6D8"
                 id="stop3711" /><stop
                 offset="0.3025"
                 style="stop-color:#A2A4A6"
                 id="stop3713" /><stop
                 offset="0.4759"
                 style="stop-color:#7A7C7F"
                 id="stop3715" /><stop
                 offset="0.6368"
                 style="stop-color:#5A5B5D"
                 id="stop3717" /><stop
                 offset="0.7828"
                 style="stop-color:#3F3E40"
                 id="stop3719" /><stop
                 offset="0.9086"
                 style="stop-color:#181818"
                 id="stop3721" /><stop
                 offset="1"
                 style="stop-color:#000000"
                 id="stop3723" /></linearGradient><polygon
               id="XMLID_61_"
               class="st5"
               points="106.8,56.3 73.3,89.7 39.9,56.3 73.3,22.9 "
               clip-path="url(#XMLID_71_)"
               style="fill:url(#XMLID_73_)" /></g></g></g><path
         id="XMLID_139_"
         class="st6"
         d="M 102.5,105.7 V 28.2 c 0,-2.6 -0.6,-5.1 -1.7,-7.6 -0.3,-0.8 -0.7,-1.5 -1.2,-2.2 v -2.7 c 0,-3.5 -2.8,-6.3 -6.3,-6.3 H 90.1 C 88.2,8.3 86.8,7.6 86.5,7.5 85.7,7.2 84.9,7 84,7 c -0.7,0 -1.3,0.1 -2,0.3 0,0 -0.1,0 -0.1,0 C 81.8,7.3 81.6,7.2 81.5,7.2 81.1,7 80.7,6.9 80.2,6.8 76,6.1 71.7,5.5 67.5,5.1 c -0.2,0 -0.4,0 -0.6,0 -0.1,0 -0.2,0 -0.3,0 C 64.7,4.9 62.7,4.8 60.7,4.7 60.2,3.7 59.6,2.8 58.7,2.1 58,1.5 57.1,1 56.1,0.7 54.9,0.2 53.4,0 51.8,0 50.2,0 48.8,0.2 47.5,0.7 46.5,1 45.6,1.5 44.9,2.1 44.1,2.8 43.4,3.6 43,4.5 33.9,4.9 27.4,6 24.2,6.7 23.4,6.8 22.6,7 21.8,7.1 21.6,7.1 21.3,7.1 21.1,7.2 20.8,7.3 20.6,7.3 20.3,7.4 19.7,7.1 19.1,7 18.5,7 17.6,7 16.8,7.2 16,7.5 15.7,7.6 14.3,8.2 12.4,9.4 H 9.3 C 5.8,9.4 3,12.2 3,15.7 v 2.7 c -0.5,0.7 -0.9,1.5 -1.2,2.2 -1.1,2.4 -1.7,5 -1.7,7.6 v 77.5 C 0,120.6 0,120.6 0,120.6 c 0,4.4 3.6,8 8,8 h 7.9 c 3.9,0 7.2,-2.8 7.9,-6.5 h 7.5 c 0.3,0.1 0.5,0.1 0.8,0.1 0.3,0 0.5,0 0.8,-0.1 h 45.9 c 0.7,3.7 4,6.5 7.9,6.5 h 7.9 c 4.4,0 8,-3.6 8,-8 -0.1,0 -0.1,0 -0.1,-14.9 m -8,20.2 h -7.9 c -2.9,0 -5.3,-2.4 -5.3,-5.3 v -1.2 H 32.2 l -0.2,0.1 v -0.1 H 21.2 v 1.2 c 0,2.9 -2.4,5.3 -5.3,5.3 H 8 c -2.9,0 -5.3,-2.4 -5.3,-5.3 0,0 0.1,-14.9 0.1,-14.9 V 28.2 c 0,-2.2 0.5,-4.4 1.4,-6.4 0.4,-0.9 0.9,-1.7 1.4,-2.6 v -3.5 c 0,-2 1.6,-3.6 3.6,-3.6 h 4 c 2.1,-1.3 3.7,-2 3.9,-2.1 0.5,-0.2 0.9,-0.3 1.4,-0.3 0.5,0 1.1,0.1 1.6,0.4 0.5,-0.1 1,-0.2 1.5,-0.3 0.2,0 0.4,-0.1 0.6,-0.1 C 23,9.5 23.9,9.4 24.8,9.3 28.3,8.5 35.2,7.4 45,7.1 45.1,6 45.7,5 46.6,4.2 c 0.5,-0.4 1.1,-0.7 1.8,-0.9 1,-0.3 2.2,-0.5 3.4,-0.5 1.3,0 2.4,0.2 3.4,0.5 0.7,0.2 1.3,0.6 1.8,0.9 1,0.8 1.5,1.9 1.6,3.1 0.1,0 0.2,0 0.3,0.1 2.6,0.1 5.2,0.3 7.7,0.5 0.1,0 0.2,0 0.4,0 0.1,0 0.2,0 0.4,0 4.1,0.4 8.3,1 12.5,1.7 0.3,0.1 0.6,0.1 0.9,0.3 0.2,0 0.4,0.1 0.5,0.1 0.4,0.1 0.7,0.1 1.1,0.2 0.5,-0.3 1.1,-0.4 1.7,-0.4 0.5,0 1,0.1 1.4,0.3 0.2,0.1 1.8,0.8 3.9,2.1 h 4 c 2,0 3.6,1.6 3.6,3.6 v 3.5 c 0.6,0.8 1,1.7 1.4,2.6 0.9,2.1 1.4,4.2 1.4,6.4 v 77.5 c 0,0 0,14.9 0,14.9 0,2.8 -2.4,5.2 -5.3,5.2"
         clip-path="url(#XMLID_69_)"
         inkscape:connector-curvature="0"
         style="fill:#26cad3" /><path
         id="XMLID_136_"
         class="st7"
         d="M 99.8,105.7 V 28.2 C 99.8,26 99.3,23.8 98.4,21.8 98,20.9 97.5,20.1 97,19.2 v -3.5 c 0,-2 -1.6,-3.6 -3.6,-3.6 h -4 C 87.3,10.8 85.7,10.1 85.5,10 85,9.8 84.5,9.7 84,9.7 83.4,9.7 82.8,9.8 82.3,10.1 81.9,10 81.6,10 81.2,9.9 81,9.8 80.9,9.8 80.7,9.8 80.4,9.7 80.1,9.6 79.8,9.5 75.6,8.8 71.4,8.2 67.3,7.8 c -0.1,0 -0.2,0 -0.4,0 -0.2,0 -0.2,0 -0.4,0 C 64,7.6 61.4,7.4 58.8,7.3 58.7,7.3 58.6,7.2 58.5,7.2 58.6,6.1 58,4.9 57,4.2 56.5,3.8 55.9,3.5 55.2,3.3 54.2,3 53,2.8 51.8,2.8 50.5,2.8 49.4,3 48.4,3.3 47.7,3.5 47.1,3.9 46.6,4.2 45.7,4.9 45.1,6 45,7.1 35.2,7.4 28.2,8.6 24.7,9.3 23.8,9.4 23,9.6 22.1,9.7 21.9,9.7 21.7,9.7 21.5,9.8 21,9.9 20.5,10 20,10.1 19.5,9.9 19,9.7 18.4,9.7 c -0.5,0 -1,0.1 -1.4,0.3 -0.2,0.1 -1.8,0.8 -3.9,2.1 h -4 c -2,0 -3.6,1.6 -3.6,3.6 v 3.5 C 4.9,20 4.5,20.9 4.1,21.8 3.2,23.9 2.7,26 2.7,28.2 v 77.5 c 0,0 -0.1,14.9 -0.1,14.9 0,2.9 2.4,5.3 5.3,5.3 h 7.9 c 2.9,0 5.3,-2.4 5.3,-5.3 v -1.2 h 60.1 v 1.2 c 0,2.9 2.4,5.3 5.3,5.3 h 7.9 c 2.9,0 5.3,-2.4 5.3,-5.3 0.1,0 0.1,-14.9 0.1,-14.9 M 27.5,78.8 28.6,77 h -2.3 l -1.1,1.8 H 23.1 L 24.2,77 H 20.1 V 75.2 L 19.1,77 20,15.8 22.2,14.2 23.6,13 c 0,0 12.2,-3.2 32.3,-2.5 4.3,0.1 9.1,0.3 12.9,0.9 3.3,0.4 6.8,0.8 10.4,1.5 1.6,1.6 2.1,3.7 2.1,3.7 l 1.5,19.3 1,3.7 0.2,39.3 z"
         clip-path="url(#XMLID_69_)"
         inkscape:connector-curvature="0"
         style="fill:#010101" /><polygon
         id="XMLID_54_"
         class="st6"
         points="22.9,37 79.1,37 79.3,33.8 22.7,33.8 "
         clip-path="url(#XMLID_69_)"
         style="fill:#26cad3" /><polygon
         id="XMLID_53_"
         class="st6"
         points="77.1,69.7 77.2,67.8 24.7,67.8 24.8,69.7 "
         clip-path="url(#XMLID_69_)"
         style="fill:#26cad3" /><path
         id="XMLID_52_"
         class="st8"
         d="m 18.3,109.1 c 2.2,1.9 4.5,3.6 7,5.1 h 51.2 c 2.7,-1.6 5.3,-3.5 7.6,-5.6 V 77.9 H 18.3 Z"
         clip-path="url(#XMLID_69_)"
         inkscape:connector-curvature="0"
         style="fill:#565656" /><path
         id="XMLID_130_"
         class="st7"
         d="M 76.8,115.1 H 25.1 L 24.9,115 c -2.5,-1.5 -4.9,-3.2 -7.2,-5.2 l -0.3,-0.3 V 76.9 h 67.8 v 32 l -0.3,0.3 c -2.4,2.1 -5,4.1 -7.8,5.7 z m -51.2,-1.9 h 50.7 c 2.5,-1.5 4.8,-3.2 7,-5.1 V 78.9 h -64 v 29.8 c 2,1.6 4.1,3.2 6.3,4.5"
         clip-path="url(#XMLID_69_)"
         inkscape:connector-curvature="0"
         style="fill:#010101" /><path
         id="XMLID_49_"
         class="st7"
         d="m 6.4,104 -0.1,14.9 c 0,0.9 0.8,1.7 1.7,1.7 h 7.9 c 0.9,0 1.7,-0.8 1.7,-1.7 v -4.8 H 16.5 C 11,114.2 6.4,109.6 6.4,104"
         clip-path="url(#XMLID_69_)"
         inkscape:connector-curvature="0"
         style="fill:#010101" /><path
         id="XMLID_48_"
         class="st7"
         d="m 96.1,104 c 0,5.6 -4.6,10.1 -10.1,10.1 h -1.1 v 4.8 c 0,0.9 0.8,1.7 1.7,1.7 h 7.9 c 0.9,0 1.7,-0.8 1.7,-1.7 z"
         clip-path="url(#XMLID_69_)"
         inkscape:connector-curvature="0"
         style="fill:#010101" /><path
         id="XMLID_47_"
         class="st7"
         d="m 28.1,99.9 1.9,3.4 c 1.3,2.3 3.8,3.8 6.5,3.8 h 29.3 c 2.7,0 5.2,-1.4 6.5,-3.8 l 1.9,-3.4 z"
         clip-path="url(#XMLID_69_)"
         inkscape:connector-curvature="0"
         style="fill:#010101" /><path
         id="XMLID_124_"
         class="st7"
         d="m 23.7,90.6 c -1.5,0 -2.8,1.2 -2.8,2.8 0,1.5 1.3,2.8 2.8,2.8 1.5,0 2.8,-1.2 2.8,-2.8 0,-1.6 -1.3,-2.8 -2.8,-2.8 m 0,5 c -1.2,0 -2.2,-1 -2.2,-2.2 0,-1.2 1,-2.2 2.2,-2.2 1.2,0 2.2,1 2.2,2.2 0,1.2 -1,2.2 -2.2,2.2"
         clip-path="url(#XMLID_69_)"
         inkscape:connector-curvature="0"
         style="fill:#010101" /><path
         id="XMLID_44_"
         class="st9"
         d="m 23.7,91.5 c -1,0 -1.9,0.9 -1.9,1.9 0,1 0.9,1.9 1.9,1.9 1,0 1.9,-0.9 1.9,-1.9 0,-1 -0.9,-1.9 -1.9,-1.9"
         clip-path="url(#XMLID_69_)"
         inkscape:connector-curvature="0"
         style="fill:#ffffff" /><path
         id="XMLID_120_"
         class="st7"
         d="m 23.7,96.2 c -1.6,0 -2.9,-1.3 -2.9,-2.9 0,-1.6 1.3,-2.9 2.9,-2.9 1.6,0 2.9,1.3 2.9,2.9 -0.1,1.6 -1.3,2.9 -2.9,2.9 m 0,-3.8 c -0.5,0 -0.9,0.4 -0.9,0.9 0,0.5 0.4,0.9 0.9,0.9 0.5,0 0.9,-0.4 0.9,-0.9 0,-0.5 -0.4,-0.9 -0.9,-0.9"
         clip-path="url(#XMLID_69_)"
         inkscape:connector-curvature="0"
         style="fill:#010101" /><path
         id="XMLID_117_"
         class="st7"
         d="m 78.8,90.6 c -1.5,0 -2.8,1.2 -2.8,2.8 0,1.5 1.3,2.8 2.8,2.8 1.5,0 2.8,-1.2 2.8,-2.8 0,-1.6 -1.2,-2.8 -2.8,-2.8 m 0,5 c -1.2,0 -2.2,-1 -2.2,-2.2 0,-1.2 1,-2.2 2.2,-2.2 1.2,0 2.2,1 2.2,2.2 0,1.2 -1,2.2 -2.2,2.2"
         clip-path="url(#XMLID_69_)"
         inkscape:connector-curvature="0"
         style="fill:#010101" /><path
         id="XMLID_39_"
         class="st9"
         d="m 78.8,91.5 c -1,0 -1.9,0.9 -1.9,1.9 0,1 0.9,1.9 1.9,1.9 1,0 1.9,-0.9 1.9,-1.9 0,-1 -0.8,-1.9 -1.9,-1.9"
         clip-path="url(#XMLID_69_)"
         inkscape:connector-curvature="0"
         style="fill:#ffffff" /><path
         id="XMLID_113_"
         class="st7"
         d="m 78.8,96.2 c -1.6,0 -2.9,-1.3 -2.9,-2.9 0,-1.6 1.3,-2.9 2.9,-2.9 1.6,0 2.9,1.3 2.9,2.9 0,1.6 -1.3,2.9 -2.9,2.9 m 0,-3.8 c -0.5,0 -0.9,0.4 -0.9,0.9 0,0.5 0.4,0.9 0.9,0.9 0.5,0 0.9,-0.4 0.9,-0.9 0.1,-0.5 -0.3,-0.9 -0.9,-0.9"
         clip-path="url(#XMLID_69_)"
         inkscape:connector-curvature="0"
         style="fill:#010101" /><path
         id="XMLID_36_"
         class="st7"
         d="m 50.3,110.2 c 0,-0.6 0.5,-1 1,-1 0.6,0 1,0.5 1,1 l 0.2,2.3 h 0.2 v -2.8 c 0,-0.8 -0.7,-1.5 -1.5,-1.5 -0.8,0 -1.5,0.7 -1.5,1.5 v 2.8 H 50 Z"
         clip-path="url(#XMLID_69_)"
         inkscape:connector-curvature="0"
         style="fill:#010101" /><path
         id="XMLID_35_"
         class="st8"
         d="m 14.3,14.1 h -5 v 3.6 h 0.9 c 1.3,-1.5 2.7,-2.7 4.1,-3.6"
         clip-path="url(#XMLID_69_)"
         inkscape:connector-curvature="0"
         style="fill:#565656" /><path
         id="XMLID_108_"
         class="st7"
         d="M 10.4,18.3 H 8.6 v -4.8 h 7.7 l -1.7,1.2 c -1.6,1.1 -2.9,2.2 -4,3.5 z M 9.9,14.7 V 17 c 0.7,-0.8 1.6,-1.5 2.5,-2.3 z"
         clip-path="url(#XMLID_69_)"
         inkscape:connector-curvature="0"
         style="fill:#010101" /><path
         id="XMLID_32_"
         class="st8"
         d="m 92.4,17.6 h 0.9 V 14 h -5 c 1.3,1 2.8,2.2 4.1,3.6"
         clip-path="url(#XMLID_69_)"
         inkscape:connector-curvature="0"
         style="fill:#565656" /><path
         id="XMLID_104_"
         class="st7"
         d="m 93.9,18.3 h -1.8 l -0.2,-0.2 c -1.1,-1.2 -2.5,-2.4 -4,-3.5 l -1.7,-1.2 h 7.7 z m -3.7,-3.6 c 0.9,0.7 1.7,1.5 2.5,2.3 v -2.3 z"
         clip-path="url(#XMLID_69_)"
         inkscape:connector-curvature="0"
         style="fill:#010101" /><path
         id="XMLID_101_"
         class="st7"
         d="M 75.1,78.9 H 27.4 c -1.4,0 -2.6,-1.2 -2.6,-2.6 l -3.3,-65.4 0.8,-0.2 c 9.2,-1.7 19,-2.6 28.9,-2.6 9.9,0 19.8,0.9 29,2.6 l 0.8,0.2 v 0.8 l -3.2,64.6 c -0.1,1.5 -1.2,2.6 -2.7,2.6 M 23.5,12.5 26.7,76.3 v 0 c 0,0.4 0.3,0.7 0.7,0.7 h 47.7 c 0.4,0 0.7,-0.3 0.7,-0.7 v 0 L 79,12.5 c -8.9,-1.6 -18.2,-2.4 -27.8,-2.4 -9.5,0 -18.9,0.8 -27.7,2.4"
         clip-path="url(#XMLID_69_)"
         inkscape:connector-curvature="0"
         style="fill:#010101" /><path
         id="XMLID_27_"
         class="st7"
         d="m 26.3,89.2 c 1.6,2.8 4.5,4.5 7.7,4.5 h 34.5 c 3.2,0 6.1,-1.7 7.7,-4.5 L 83,77.5 H 19.6 Z"
         clip-path="url(#XMLID_69_)"
         inkscape:connector-curvature="0"
         style="fill:#010101" /><path
         id="XMLID_26_"
         class="st9"
         d="M 57.1,84.1 V 82.8 C 57.1,82.3 56.7,82 56.3,82 h -0.6 c 0,0.1 0,2.7 0,2.7 0,1.3 1.3,1.3 1.3,1.3 0.4,0 1,-0.2 1,-0.8 V 85 c 0,-0.1 -0.9,0.1 -0.9,-0.9"
         clip-path="url(#XMLID_69_)"
         inkscape:connector-curvature="0"
         style="fill:#ffffff" /><path
         id="XMLID_25_"
         class="st9"
         d="m 56.3,81.7 c 0.4,0 0.7,-0.3 0.7,-0.7 0,-0.4 -0.3,-0.7 -0.7,-0.7 -0.4,0 -0.7,0.3 -0.7,0.7 0,0.4 0.3,0.7 0.7,0.7"
         clip-path="url(#XMLID_69_)"
         inkscape:connector-curvature="0"
         style="fill:#ffffff" /><path
         id="XMLID_24_"
         class="st9"
         d="m 54.6,84.1 v -2.8 c 0,-0.5 -0.4,-0.8 -0.8,-0.8 h -0.6 c 0,0.1 0,4.2 0,4.2 0,1.3 1.3,1.3 1.3,1.3 0.4,0 1,-0.2 1,-0.8 V 85 c 0,-0.1 -0.9,0.1 -0.9,-0.9"
         clip-path="url(#XMLID_69_)"
         inkscape:connector-curvature="0"
         style="fill:#ffffff" /><path
         id="XMLID_23_"
         class="st9"
         d="m 52.2,84.1 v -2.8 c 0,-0.5 -0.4,-0.8 -0.8,-0.8 h -0.6 c 0,0.1 0,4.2 0,4.2 0,1.3 1.3,1.3 1.3,1.3 0.4,0 1,-0.2 1,-0.8 V 85 c 0,-0.1 -0.9,0.1 -0.9,-0.9"
         clip-path="url(#XMLID_69_)"
         inkscape:connector-curvature="0"
         style="fill:#ffffff" /><path
         id="XMLID_93_"
         class="st9"
         d="m 48.3,81.8 c -1.1,0 -2.1,0.9 -2.1,2.1 0,1.1 0.9,2.1 2.1,2.1 1.1,0 2.1,-0.9 2.1,-2.1 0,-1.2 -0.9,-2.1 -2.1,-2.1 m 0.8,2.1 c -0.2,0.4 -0.7,0.9 -0.7,0.9 0,0 -0.1,0 -0.1,0 0,0 -0.1,0 -0.1,0 0,0 -0.5,-0.5 -0.7,-0.9 0,-0.1 0,-0.2 0,-0.3 0,-0.4 0.4,-0.8 0.8,-0.8 0.4,0 0.8,0.4 0.8,0.8 0.1,0.2 0,0.3 0,0.3"
         clip-path="url(#XMLID_69_)"
         inkscape:connector-curvature="0"
         style="fill:#ffffff" /><path
         id="XMLID_20_"
         class="st9"
         d="m 48.3,83.4 c -0.2,0 -0.3,0.1 -0.3,0.3 0,0.2 0.1,0.3 0.3,0.3 0.2,0 0.3,-0.1 0.3,-0.3 0,-0.2 -0.1,-0.3 -0.3,-0.3"
         clip-path="url(#XMLID_69_)"
         inkscape:connector-curvature="0"
         style="fill:#ffffff" /><path
         id="XMLID_19_"
         class="st9"
         d="m 55,7.2 c 0,0 0,0 0,0 0,0 0,0 0,0 0,-0.1 0,-0.1 0,-0.1 0,0 0,0 0,0 0,0 0,0 0,0 0,0 0,0 0,0 0,0 0,0 0,0 0,0 0,0 0,0 0,0 0,0 0,0 0,0 0,0 0,0 0,0 0,0 0,0 0,0 0,0 0,0 0,0 0,0 0,0 0,0 0,0 0,0 0,0 0,0 0,0 0,0 0,0 0,0 0,0 0,0 0,0 0,0 0,0 0,0 0,0 0,0 0,0 0,0 0,0 0,0 0,0 0,0 0,0 0,0 0,0 0,0 0,0 0,0 0,0 0,0 0,0 0,0 0,0 0,0 0,0 0,0 0,0 0,0 0,0 0,0 0,0 0,0 0,0 0,0 0,0 0,0 0,0 0,0 0,0 0,0 0,0 0,0 0,0 0,0 0,0 0,0 0,0 0,0 0,0 C 55,6.5 53.6,6 51.8,6 50,6 48.6,6.5 48.6,7.1 c 0,0 0,0 0,0 0,0 0,0 0,0 0,0 0,0 0,0 0,0 0,0 0,0 0,0 0,0 0,0 0,0 0,0 0,0 0,0 0,0 0,0 0,0 0,0 0,0 0,0 0,0 0,0 0,0 0,0 0,0 0,0 0,0 0,0 0,0 0,0 0,0 0,0 0,0 0,0 0,0 0,0 0,0 0,0 0,0 0,0 0,0 0,0 0,0 0,0 0,0 0,0 0,0 0,0 0,0 0,0 0,0 0,0 0,0 0,0 0,0 0,0 0,0 0,0 0,0 0,0 0,0 0,0 0,0 0,0 0,0 0,0 0,0 0,0 0,0 0,0 0,0 0,0 0,0 0,0 0,0 0,0 0,0 0,0 0,0 0,0 0,0 0,0 0,0 0,0 0,0 1.1,0.2 2.3,0.3 3.6,0.3 1,0.1 1.9,0 2.8,-0.2"
         clip-path="url(#XMLID_69_)"
         inkscape:connector-curvature="0"
         style="fill:#ffffff" /><path
         id="XMLID_88_"
         class="st7"
         d="M 52.2,8.4 C 50.9,8.4 49.6,8.3 48.4,8 L 47.6,7.8 V 7 c 0,0 0,0 0,0 0,0 0,0 0,-0.1 0,-0.1 0,0 0,0 0,0 0,0 0,0 0,0 0,0 0,0 0,0 0,0 0,0 0,0 0,0 0,0 0,0 0,0 0,0 0,0 0,0 0,0 0,0 0,0 0,0 0,0 0,0 0,0 0,0 0,0 0,0 0,0 0,0 0,0 0,0 0,0 0,0 0,0 0,0 0,0 0,0 0,0 0,0 0,0 0,0 0,0 0,0 0,0 0,0 0,0 0,0 0,0 0,0 0,0 0,0 0,0 0,0 0,0 0,0 0,0 0,0 0,0 0,0 0,0 0,0 0,0 0,0 0,0 0,0 0,0 0,0 0,0 0,0 0,0 0,0 0,0 0,0 0,0 0,0 0,0 0,0 0,0 0,0 0,0 0,0 0,-1.5 2.2,-2 4.1,-2 1.9,0 4.1,0.5 4.1,2 0,0 0,0 0,0 0,0 0,0 0,0 0,0 0,0 0,0 0,0 0,0 0,0 0,0 0,0 0,0 0,0 0,0 0,0 0,0 0,0 0,0 0,0 0,0 0,0 0,0 0,0 0,0 0,0 0,0 0,0 0,0 0,0 0,0 0,0 0,0 0,0 0,0 0,0 0,0 0,0 0,0 0,0 0,0 0,0 0,0 0,0 0,0 0,0 0,0 0,0 0,0 0,0 0,0 0,0 0,0 0,0 0,0 0,0 0,0 0,0 0,0 0,0 0,0 0,0 0,0 0,0 0,0 0,0 0,0 0,0 0,0 0,0 0,0 0,0 0,0 0,0 0,0 0,0 0,0 0,0 0,0 0,0 0,0 0,0 0,0 0,0 0,0 0,0 0,0 0,0 0,0 0,0 0,0 0,0 0,0 0,0 0,0.1 0,0.1 0,0.1 L 55.7,7.7 55,7.8 C 54.2,8.3 53.2,8.4 52.2,8.4 M 49.6,6.3 c 0.8,0.1 1.7,0.2 2.6,0.2 0.6,0 1.3,0 1.9,-0.1 v 0 0 0 0 0 0 0 0 0 0 C 53.8,6.2 53,6 51.9,6 50.8,6 50,6.2 49.7,6.4 v 0 0 0 0 z"
         clip-path="url(#XMLID_69_)"
         inkscape:connector-curvature="0"
         style="fill:#010101" /><path
         id="XMLID_16_"
         class="st9"
         d="m 6.4,26.5 v 49.6 1.8 6.8 12.6 c 1.8,6.4 6.3,11.7 12.1,14.5 V 77.9 76.1 11.7 c 0,0 -12.1,5.1 -12.1,14.8"
         clip-path="url(#XMLID_69_)"
         inkscape:connector-curvature="0"
         style="fill:#ffffff" /><path
         id="XMLID_84_"
         class="st7"
         d="m 19.5,113.3 -1.4,-0.7 C 11.9,109.6 7.3,104.1 5.5,97.5 V 97.4 26.5 c 0,-2.4 0.7,-4.7 2,-6.9 1.1,-1.7 2.5,-3.4 4.4,-4.9 3.1,-2.6 6.2,-3.9 6.3,-3.9 l 1.3,-0.6 z M 7.3,97.1 c 1.6,5.6 5.3,10.3 10.2,13.1 v -97 c -1.1,0.6 -2.8,1.6 -4.5,3 -1.7,1.4 -3,2.9 -3.9,4.4 -1.2,1.9 -1.7,3.9 -1.7,5.9 v 70.6 z"
         clip-path="url(#XMLID_69_)"
         inkscape:connector-curvature="0"
         style="fill:#010101" /><path
         id="XMLID_13_"
         class="st9"
         d="m 84,11.7 v 65 1.2 33.9 C 89.8,109 94.3,103.7 96.1,97.3 V 84.6 77.8 76.6 26.5 C 96.1,16.8 84,11.7 84,11.7"
         clip-path="url(#XMLID_69_)"
         inkscape:connector-curvature="0"
         style="fill:#ffffff" /><path
         id="XMLID_80_"
         class="st7"
         d="m 83.1,113.3 v -103 l 1.3,0.6 c 0.1,0.1 3.2,1.4 6.3,3.9 1.8,1.5 3.3,3.2 4.4,4.9 1.3,2.2 2,4.5 2,6.9 v 70.9 0.1 c -1.9,6.7 -6.5,12.2 -12.6,15.1 z M 85,13.2 v 97 c 4.9,-2.8 8.6,-7.5 10.2,-13.1 V 26.5 C 95.2,19.4 88,14.8 85,13.2"
         clip-path="url(#XMLID_69_)"
         inkscape:connector-curvature="0"
         style="fill:#010101" /><path
         id="XMLID_10_"
         class="st8"
         d="M 18.3,111.7 C 12.5,108.9 8.2,103.6 6.4,97.3 v 6.8 c 0,5.6 4.6,10.1 10.1,10.1 h 1.8 0.2 6.9 c -2.5,-1.5 -4.9,-3.2 -7,-5.1 v 2.6 z"
         clip-path="url(#XMLID_69_)"
         inkscape:connector-curvature="0"
         style="fill:#565656" /><path
         id="XMLID_76_"
         class="st7"
         d="M 27.7,114.8 H 16.5 c -2.9,0 -5.6,-1.1 -7.6,-3.2 -2,-2 -3.2,-4.7 -3.2,-7.6 V 92.6 L 7,97.1 c 1.6,5.8 5.5,10.7 10.7,13.5 v -2.9 l 1,0.9 c 2.2,1.9 4.5,3.6 7,5 z M 7,100.9 v 3.2 c 0,2.5 1,4.9 2.8,6.7 1.8,1.8 4.2,2.8 6.7,2.8 h 6.6 c -1.4,-1 -2.9,-2 -4.2,-3.1 v 2.3 L 18,112.3 C 13.1,109.8 9.3,105.8 7,100.9"
         clip-path="url(#XMLID_69_)"
         inkscape:connector-curvature="0"
         style="fill:#010101" /><path
         id="XMLID_7_"
         class="st8"
         d="m 84.2,111.7 v -3.1 c -2.4,2.1 -4.9,4 -7.6,5.6 H 84 84.2 86 c 5.6,0 10.1,-4.6 10.1,-10.1 v -6.8 c -1.7,6.3 -6.1,11.6 -11.9,14.4"
         clip-path="url(#XMLID_69_)"
         inkscape:connector-curvature="0"
         style="fill:#565656" /><path
         id="XMLID_72_"
         class="st7"
         d="M 86,114.8 H 74.3 l 2,-1.2 c 2.7,-1.6 5.2,-3.5 7.6,-5.5 l 1.1,-0.9 v 3.5 c 5.2,-2.9 9.1,-7.7 10.7,-13.5 l 1.2,-4.5 V 104 c 0,2.9 -1.1,5.6 -3.2,7.6 -2.1,2.1 -4.8,3.2 -7.7,3.2 m -7.2,-1.3 H 86 c 2.5,0 4.9,-1 6.7,-2.8 1.8,-1.8 2.8,-4.2 2.8,-6.7 v -3.2 c -2.2,4.9 -6.1,9 -11,11.4 l -0.9,0.4 v -2.8 c -1.6,1.4 -3.2,2.6 -4.8,3.7"
         clip-path="url(#XMLID_69_)"
         inkscape:connector-curvature="0"
         style="fill:#010101" /><path
         id="XMLID_4_"
         class="st7"
         d="m 80.9,39.1 c 0,-0.4 0.4,-0.7 0.8,-0.7 0,0 0,0 0,0 0.4,0 0.7,0.4 0.7,0.8 L 82.3,77.5 H 84 V 76.7 12.5 c -1.4,-0.3 -2.8,-0.6 -4.2,-0.9 l -3.2,64.6 c 0,0.5 -0.2,0.9 -0.5,1.2 H 78 Z"
         clip-path="url(#XMLID_69_)"
         inkscape:connector-curvature="0"
         style="fill:#010101" /><path
         id="XMLID_3_"
         class="st7"
         d="m 20.1,39.2 c 0,-0.4 0.3,-0.7 0.7,-0.8 0,0 0,0 0,0 0.4,0 0.7,0.3 0.8,0.7 l 3,38.4 H 26 C 25.7,77.2 25.5,76.8 25.5,76.3 L 22.3,11.7 c -1.3,0.2 -2.5,0.5 -3.8,0.8 v 63.7 1.4 h 1.7 z"
         clip-path="url(#XMLID_69_)"
         inkscape:connector-curvature="0"
         style="fill:#010101" /></g></g></svg>