<?xml version="1.0" encoding="utf-8"?>
<!-- Generator: Adobe Illustrator 19.1.0, SVG Export Plug-In . SVG Version: 6.00 Build 0)  -->
<svg version="1.1" id="Layer_1" xmlns="http://www.w3.org/2000/svg" xmlns:xlink="http://www.w3.org/1999/xlink" x="0px" y="0px"
	 viewBox="0 0 107.6 107.6" style="enable-background:new 0 0 107.6 107.6;" xml:space="preserve">
<style type="text/css">
	.st0{fill:#FFFFFF;stroke:#000000;stroke-width:5;stroke-miterlimit:10;}
	.st1{fill:#00A5AB;}
	.st2{fill:#FFFFFF;}
	.st3{fill:#FF5959;}
	.st4{fill:none;stroke:#4BBAEC;stroke-miterlimit:10;}
	.st5{fill:#FFFFFE;}
</style>
<g>
	<path class="st4" d="M53.8,0.5C24.4,0.5,0.5,24.4,0.5,53.8c0,29.4,23.9,53.3,53.3,53.3c29.4,0,53.3-23.9,53.3-53.3
		C107.1,24.4,83.3,0.5,53.8,0.5z M73.8,55.5c-4.1,11.6-17,23.9-17.6,24.5c-0.5,0.5-1.4,1.2-2.3,1.2c-0.9,0-1.8-0.7-2.3-1.2
		C50.8,79.4,38,67.1,33.9,55.5c-0.7-2-1.1-4.3-1.1-6.7c0-11.6,9.4-21.1,21.1-21.1c11.6,0,21.1,9.4,21.1,21.1
		C74.9,51.3,74.5,53.5,73.8,55.5z"/>
	<circle class="st4" cx="53.8" cy="48.4" r="7.4"/>
</g>
</svg>
