<?xml version="1.0" encoding="utf-8"?>
<!-- Generator: Adobe Illustrator 22.0.1, SVG Export Plug-In . SVG Version: 6.00 Build 0)  -->
<svg version="1.1" id="Layer_1" xmlns="http://www.w3.org/2000/svg" xmlns:xlink="http://www.w3.org/1999/xlink" x="0px" y="0px"
	 viewBox="0 0 450.7 292.4" style="enable-background:new 0 0 450.7 292.4;" xml:space="preserve">
<style type="text/css">
	.st0{fill:#5EC8F3;}
	.st1{fill:none;stroke:#1A1A1A;stroke-width:2;stroke-linecap:round;stroke-linejoin:round;stroke-miterlimit:10;}
	.st2{fill:#FFFFFF;stroke:#1A1A1A;stroke-width:2;stroke-linecap:round;stroke-linejoin:round;stroke-miterlimit:10;}
	.st3{fill:none;stroke:#5EC8F3;stroke-width:2;stroke-miterlimit:10;}
</style>
<rect x="155.4" y="34.4" class="st0" width="141.8" height="223.2"/>
<circle class="st0" cx="12.4" cy="214.8" r="12.4"/>
<circle class="st0" cx="438.4" cy="214.8" r="12.4"/>
<circle class="st0" cx="42.7" cy="12.4" r="12.4"/>
<circle class="st0" cx="409.9" cy="12.4" r="12.4"/>
<path class="st1" d="M49.1,11.5l-10.3,5.4l0,0c-1.4-2.6-0.4-5.9,2.3-7.3l0.7-0.4C44.5,7.9,47.7,8.9,49.1,11.5L49.1,11.5z"/>
<line class="st1" x1="132.5" y1="273" x2="320.3" y2="273"/>
<g>
	<path class="st1" d="M436.7,221.3c0.4-4.2,0.8-11.5,0.8-11.5c0.5,0,3.7,0.5,3.7,5.7C441.3,220.1,436.7,221.7,436.7,221.3z"/>
</g>
<g>
	<path class="st1" d="M16.2,221.3c-0.4-4.2-0.8-11.5-0.8-11.5c-0.5,0-3.7,0.5-3.7,5.7C11.6,220.1,16.2,221.7,16.2,221.3z"/>
</g>
<path class="st1" d="M48.8,272.9h-7.8c-11.8-46.8,16.8-67.7,40.6-67.7s49.5,15.3,44.6,67.8h-11.9"/>
<path class="st1" d="M40.9,272.9l-5.2,0c-13.4-50.9,19.1-73.6,46.1-73.6s56.2,16.6,50.7,73.8h-6.3"/>
<path class="st1" d="M33.5,262.4c-20.5-21.6-18.2-56.5-18.2-72.8V84.1c0-46.3,16.4-76.4,57.5-76.4h84.5"/>
<path class="st1" d="M71.5,7.8c0,0-1.6,7.5-1.3,21.8"/>
<path class="st1" d="M37.1,179.8c0,0-14.7,0.4-21.7,0c0,0-6.9,24.8-7,35.3c-0.1,10.5,12.7,38.8,25.1,47.2"/>
<path class="st1" d="M71.5,7.8c0,0-22.1-0.9-39.5,13C16.9,33,9.6,40.2,8.3,93.3c-0.8,33.2-1.2,94.5,3.6,100.5"/>
<path class="st1" d="M9.3,180.7c0,0,1.7-49.2,2.2-63.9c0.5-14.7,0.7-36,1.4-46.4s5.1-20.3,6.8-22"/>
<circle class="st1" cx="43.2" cy="208.4" r="2"/>
<path class="st1" d="M404.2,272.9h7.7c11.8-46.8-16.8-67.7-40.6-67.7s-49.5,15.3-44.6,67.8h11.9"/>
<path class="st1" d="M411.9,272.9l5.2,0c13.4-50.9-19.1-73.6-46.1-73.6c-27,0-56.2,16.6-50.7,73.8h6.3"/>
<path class="st1" d="M419.3,262.4c20.5-21.6,18.2-56.5,18.2-72.8V84.1c0-46.3-16.4-76.4-57.5-76.4h-84.5"/>
<path class="st1" d="M381.3,7.8c0,0,1.6,7.5,1.3,21.8"/>
<path class="st1" d="M415.8,179.8c0,0,14.7,0.4,21.7,0c0,0,6.9,24.8,7,35.3c0.1,10.5-12.7,38.8-25.1,47.2"/>
<path class="st1" d="M381.3,7.8c0,0,22.1-0.9,39.5,13C436,33,443.2,40.2,444.5,93.3c0.8,33.2,1.2,94.5-3.6,100.5"/>
<path class="st1" d="M443.6,180.7c0,0-1.7-49.2-2.2-63.9s-0.7-36-1.4-46.4c-0.7-10.4-5.1-20.3-6.8-22"/>
<circle class="st1" cx="409.6" cy="208.4" r="2"/>
<path class="st1" d="M290.9,6.3h-129c-4.3,0-7.8,3.5-7.8,7.8v15.1h144.7V14.2C298.8,9.9,295.3,6.3,290.9,6.3z"/>
<path class="st1" d="M290.9,11.3H162c-1.5,0-2.7,1.2-2.7,2.7v15.3h134.2V13.9C293.5,12.5,292.3,11.3,290.9,11.3z"/>
<path class="st1" d="M154.1,29.3l-75.7,0c-25.7,0-32.4,10.4-36.5,21.3c-2.2,5.9-4.7,19.5-4.7,35.1c0,0-2.4,101.2,2.2,137.3"/>
<path class="st1" d="M298.8,29.3l75.7,0c25.7,0,32.4,10.4,36.5,21.3c2.2,5.9,4.7,19.5,4.7,35.1c0,0,2.4,101.4-2.2,137.4"/>
<g>
	<line class="st1" x1="77.8" y1="166.5" x2="73.5" y2="158.7"/>
	<path class="st1" d="M72.4,180.3c0,0-0.6-8,1.4-10.6c3.2-4.1,9.5-5.3,13.2-5.7c3.4-0.5,14.4-2.2,20.6-0.1c2.8,1.4,4.9,3.3,7.4,6.4"
		/>
	<path class="st1" d="M114.9,180c0,0-0.7-5.8-2.7-8.1c-2-2.4-5.4-4.6-5.4-4.6c-4.1-2.8-23.5-0.4-27.2,2s-4,11-4,11"/>
	<path class="st1" d="M67.2,144.5H70v9.5h-5v-7.3C65,145.5,66,144.5,67.2,144.5z"/>
	<path class="st1" d="M117.8,167.4h2.1V180h-5v-9.8C114.9,168.6,116.2,167.4,117.8,167.4z"/>
	<line class="st2" x1="66.6" y1="158.7" x2="73.9" y2="169.5"/>
	<path class="st1" d="M66,180.3l0.1-1c0.1-0.9-0.1-1.9-0.5-2.7c-1.7-3.5-6.2-13.3-7.6-16.3c-1.7-3.7,0-6.3,2.9-6.3c2.6,0,0,0,0,0"/>
	<path class="st1" d="M213.8,179.3H175c-3.1,0-4.9-0.5-6.9-2"/>
	<path class="st1" d="M284.4,177.3c-1.9,1.4-3.7,2-6.8,2h-38.5"/>
	<line class="st1" x1="374.9" y1="166.5" x2="379.2" y2="158.7"/>
	<path class="st1" d="M380.3,180.3c0,0,0.6-8-1.4-10.6c-3.2-4.1-9.5-5.3-13.2-5.7c-3.4-0.5-14.4-2.2-20.6-0.1
		c-2.8,1.4-4.9,3.3-7.4,6.4"/>
	<path class="st1" d="M337.8,180c0,0,0.7-5.8,2.7-8.1c2-2.4,5.4-4.6,5.4-4.6c4.1-2.8,23.5-0.4,27.2,2c3.7,2.4,4,11,4,11"/>
	<path class="st1" d="M385.5,144.5h-2.8v9.5h5v-7.3C387.7,145.5,386.7,144.5,385.5,144.5z"/>
	<path class="st1" d="M334.9,167.4h-2.1V180h5v-9.8C337.8,168.6,336.5,167.4,334.9,167.4z"/>
	<line class="st1" x1="386.1" y1="158.7" x2="378.8" y2="169.5"/>
	<path class="st1" d="M386.8,180.3l-0.1-1c-0.1-0.9,0.1-1.9,0.5-2.7c1.7-3.5,6.2-13.3,7.6-16.3c1.7-3.7,0-6.3-2.9-6.3
		c-2.6,0,0,0,0,0"/>
	<path class="st1" d="M391.8,158.8c1.3,0,2.4-1.1,2.4-2.4v0c0-1.3-1.1-2.4-2.4-2.4h-81.3v4.7H391.8z"/>
</g>
<g>
	<g>
		<rect x="142.1" y="154.1" class="st1" width="0.1" height="4.7"/>
		<path class="st1" d="M130,165.4c3.4,3.3,9.4,2.7,12.1,2.7v-9.3h-15.4C127.3,161.3,128.3,163.8,130,165.4z"/>
		<path class="st1" d="M142.1,144.8c-4.4-0.6-4.4-0.6-8.7-0.4c-4.4,0.3-6.6,2.4-7.1,6.6c-0.1,0.9-0.1,1.9-0.1,3h15.9V144.8z"/>
		<path class="st1" d="M126.2,154.1H60.9c-1.3,0-2.4,1.1-2.4,2.4s1.1,2.4,2.4,2.4h65.8h15.4v-4.7H126.2z"/>
	</g>
	<path class="st1" d="M284.5,146.6c-21.2,0.5-45.2,0-45.2,0"/>
	<path class="st1" d="M326.5,153.9c0-1,0-2-0.1-2.8c-0.5-4.2-2.7-6.3-7.1-6.6c-4.4-0.3-4.4-0.4-8.8,0.4"/>
	<path class="st1" d="M310.4,168.1c2.6,0,8.8,0.7,12.3-2.7c1.7-1.6,2.7-4,3.2-6.5"/>
	<path class="st1" d="M213.6,146.6c-20.2,0-35-0.2-45.6-0.5v22h45.8"/>
</g>
<path class="st1" d="M142.2,41.5c0-2.9-2.3-5.2-5.2-5.2l-58.3,0c-22.3,0-28.1,9-31.6,18.5c-1.9,5.1-4.1,16.9-4.1,30.4
	c0,0-1,51.8-0.4,83.3c0.2,13.7,7.6,12.1,40,11.6c3.5,0,54.4-0.1,54.4-0.1c2.8,0,5.1-2.3,5.1-5.1V41.5z"/>
<path class="st1" d="M142.2,43c0,0-52.4,0-60.6,0s-24.3,4.7-26.1,26.4s-2.8,78.3-2.8,110.4"/>
<path class="st1" d="M310.4,41.5c0-2.9,2.3-5.2,5.2-5.2l58.3,0c22.3,0,28.1,9,31.6,18.5c1.9,5.1,4.1,16.9,4.1,30.4
	c0,0,1,51.8,0.4,83.3c-0.2,13.7-7.6,12.1-40,11.6c-3.5,0-54.4-0.1-54.4-0.1c-2.8,0-5.1-2.3-5.1-5.1V41.5z"/>
<path class="st1" d="M310.4,43c0,0,52.4,0,60.6,0s24.3,4.7,26.1,26.4s2.8,78.3,2.8,110.4"/>
<g>
	<g>
		<path class="st1" d="M155.6,34.7v222.9h70.7V34.7H155.6z M168,55H214v177.3H168V55z"/>
		<rect x="163.4" y="42.1" class="st1" width="55.1" height="208"/>
		<line class="st1" x1="163.4" y1="242.5" x2="218.6" y2="242.5"/>
		<rect x="200.5" y="246.1" class="st1" width="13.2" height="4"/>
	</g>
	<g>
		<path class="st1" d="M226.4,34.7v222.9h70.7V34.7H226.4z M284.8,232.2h-45.9V55h45.9V232.2z"/>
		
			<rect x="234.2" y="42.1" transform="matrix(-1 -4.492818e-11 4.492818e-11 -1 523.63 292.2401)" class="st1" width="55.1" height="208"/>
		<line class="st1" x1="289.4" y1="242.5" x2="234.2" y2="242.5"/>
		
			<rect x="239.2" y="246.1" transform="matrix(-1 -4.472301e-11 4.472301e-11 -1 491.5522 496.176)" class="st1" width="13.2" height="4"/>
	</g>
</g>
<path class="st1" d="M404.6,11.5l10.3,5.4v0c1.4-2.6,0.4-5.9-2.3-7.3l-0.7-0.4C409.2,7.9,406,8.9,404.6,11.5L404.6,11.5z"/>
<path class="st3" d="M226.4,257.6"/>
<path class="st3" d="M226.4,34.7"/>
<g>
	<g>
		<circle class="st1" cx="81.5" cy="253.1" r="17.6"/>
		<circle class="st1" cx="81.5" cy="253.1" r="11.6"/>
		<circle class="st1" cx="81.5" cy="253.1" r="7.5"/>
		<circle class="st1" cx="81.5" cy="253.1" r="4.3"/>
	</g>
	<g>
		<path class="st1" d="M81.5,291.4c21.2,0,38.3-17.1,38.3-38.3c0-21.2-17.1-38.3-38.3-38.3s-38.3,17.1-38.3,38.3
			c0,7.3,2,14.1,5.5,19.9h0h0C55.5,284,67.6,291.4,81.5,291.4z M50,253.1c0-8.7,3.5-16.6,9.2-22.3l0,0l0,0c1.5-1.5,3.2-2.9,5-4.1
			l0,0l0,0c1.7-1.1,3.6-2.1,5.5-2.9l0,0l0,0c3.6-1.5,7.6-2.3,11.8-2.3c8.7,0,16.6,3.5,22.3,9.2l0,0l0,0c1.5,1.5,2.9,3.2,4.1,5l0,0
			l0,0c1.1,1.7,2.1,3.6,2.9,5.5l0,0l0,0c1.5,3.6,2.3,7.6,2.3,11.8c0,8.7-3.5,16.6-9.2,22.3l0,0l0,0c-1.5,1.5-3.2,2.9-5,4.1l0,0l0,0
			c-1.7,1.1-3.6,2.1-5.5,2.9l0,0l0,0c-3.6,1.5-7.6,2.3-11.8,2.3c-8.7,0-16.6-3.5-22.3-9.2l0,0l0,0c-1.5-1.5-2.9-3.2-4.1-5l0,0l0,0
			c-1.1-1.7-2.1-3.6-2.9-5.5l0,0l0,0C50.8,261.2,50,257.2,50,253.1z"/>
		<path class="st1" d="M98.8,256.7l13.6,2.8L98.8,256.7c-0.2,1.1-0.6,2.3-1,3.3l12.8,5.4L97.7,260c-0.4,1-1,2-1.6,2.9l11.5,7.7
			l-11.5-7.7c-0.6,1-1.4,1.9-2.2,2.7l9.8,9.8c5.7-5.7,9.2-13.6,9.2-22.3H99.1C99.1,254.3,99,255.5,98.8,256.7z"/>
		<path class="st1" d="M91.2,267.8l7.6,11.6c1.8-1.2,3.5-2.6,5-4.1l-9.8-9.8C93.1,266.4,92.2,267.2,91.2,267.8z"/>
		<path class="st1" d="M98.8,249.6l13.6-2.7L98.8,249.6c0.2,1.1,0.3,2.3,0.3,3.4H113c0-4.2-0.8-8.1-2.3-11.8l-12.9,5.2
			C98.3,247.5,98.6,248.5,98.8,249.6z"/>
		<path class="st1" d="M88.1,269.4l5.2,12.9c1.9-0.8,3.8-1.7,5.5-2.9l-7.6-11.6C90.2,268.5,89.2,269,88.1,269.4z"/>
		<path class="st1" d="M97.8,246.5l12.9-5.2c-0.8-1.9-1.7-3.8-2.9-5.5l-11.6,7.6C96.9,244.4,97.4,245.4,97.8,246.5z"/>
		<path class="st1" d="M77.9,270.3l-2.8,13.6L77.9,270.3c-1.1-0.2-2.3-0.6-3.3-1l-5.4,12.8l5.4-12.8c-1-0.4-2-1-2.9-1.6L64,279.3
			l7.7-11.5c-1-0.6-1.9-1.4-2.7-2.2l-9.8,9.8c5.7,5.7,13.6,9.2,22.3,9.2v-13.9C80.3,270.7,79.1,270.6,77.9,270.3z"/>
		<path class="st1" d="M85,270.4l2.7,13.6L85,270.4c-1.1,0.2-2.3,0.3-3.4,0.3v13.9c4.2,0,8.1-0.8,11.8-2.3l-5.2-12.9
			C87.1,269.8,86,270.1,85,270.4z"/>
		<path class="st1" d="M66.8,262.7l-11.6,7.6c1.2,1.8,2.6,3.5,4.1,5l9.8-9.8C68.2,264.7,67.4,263.7,66.8,262.7z"/>
		<path class="st1" d="M64.2,256.5l-13.6,2.7L64.2,256.5c-0.2-1.1-0.3-2.3-0.3-3.4H50c0,4.2,0.8,8.1,2.3,11.8l12.9-5.2
			C64.8,258.7,64.4,257.6,64.2,256.5z"/>
		<path class="st1" d="M64.3,249.5l-13.6-2.8L64.3,249.5c0.2-1.1,0.6-2.3,1-3.3l-12.8-5.4l12.8,5.4c0.4-1,1-2,1.6-2.9l-11.5-7.7
			l11.5,7.7c0.6-1,1.4-1.9,2.2-2.7l-9.8-9.8c-5.7,5.7-9.2,13.6-9.2,22.3h13.9C63.9,251.8,64,250.6,64.3,249.5z"/>
		<path class="st1" d="M96.2,243.4l11.6-7.6c-1.2-1.8-2.6-3.5-4.1-5l-9.8,9.8C94.8,241.5,95.6,242.4,96.2,243.4z"/>
		<path class="st1" d="M66.8,262.7c-0.6-1-1.2-2-1.6-3.1l-12.9,5.2c0.8,1.9,1.7,3.8,2.9,5.5L66.8,262.7z"/>
		<path class="st1" d="M74.9,236.7l-5.2-12.9c-1.9,0.8-3.8,1.7-5.5,2.9l7.6,11.6C72.8,237.7,73.8,237.2,74.9,236.7z"/>
		<path class="st1" d="M85.1,235.8l2.8-13.6L85.1,235.8c1.1,0.2,2.3,0.6,3.3,1l5.4-12.8l-5.4,12.8c1,0.4,2,1,2.9,1.6l7.7-11.5
			l-7.7,11.5c1,0.6,1.9,1.4,2.7,2.2l9.8-9.8c-5.7-5.7-13.6-9.2-22.3-9.2v13.9C82.7,235.5,83.9,235.6,85.1,235.8z"/>
		<path class="st1" d="M78.1,235.8l-2.7-13.6L78.1,235.8c1.1-0.2,2.3-0.3,3.4-0.3v-13.9c-4.2,0-8.1,0.8-11.8,2.3l5.2,12.9
			C75.9,236.3,77,236,78.1,235.8z"/>
		<path class="st1" d="M71.9,238.3l-7.6-11.6c-1.8,1.2-3.5,2.6-5,4.1l9.8,9.8C69.9,239.8,70.8,239,71.9,238.3z"/>
	</g>
</g>
<g>
	<g>
		<circle class="st1" cx="371.3" cy="253.1" r="17.6"/>
		<circle class="st1" cx="371.3" cy="253.1" r="11.6"/>
		<circle class="st1" cx="371.3" cy="253.1" r="7.5"/>
		<circle class="st1" cx="371.3" cy="253.1" r="4.3"/>
	</g>
	<g>
		<path class="st1" d="M371.3,291.4c21.2,0,38.3-17.1,38.3-38.3c0-21.2-17.1-38.3-38.3-38.3S333,231.9,333,253.1
			c0,7.3,2,14.1,5.5,19.9h0h0C345.2,284,357.4,291.4,371.3,291.4z M339.8,253.1c0-8.7,3.5-16.6,9.2-22.3l0,0l0,0
			c1.5-1.5,3.2-2.9,5-4.1l0,0l0,0c1.7-1.1,3.6-2.1,5.5-2.9l0,0l0,0c3.6-1.5,7.6-2.3,11.8-2.3c8.7,0,16.6,3.5,22.3,9.2l0,0l0,0
			c1.5,1.5,2.9,3.2,4.1,5l0,0l0,0c1.1,1.7,2.1,3.6,2.9,5.5l0,0l0,0c1.5,3.6,2.3,7.6,2.3,11.8c0,8.7-3.5,16.6-9.2,22.3l0,0l0,0
			c-1.5,1.5-3.2,2.9-5,4.1l0,0l0,0c-1.7,1.1-3.6,2.1-5.5,2.9l0,0l0,0c-3.6,1.5-7.6,2.3-11.8,2.3c-8.7,0-16.6-3.5-22.3-9.2l0,0l0,0
			c-1.5-1.5-2.9-3.2-4.1-5l0,0l0,0c-1.1-1.7-2.1-3.6-2.9-5.5l0,0l0,0C340.6,261.2,339.8,257.2,339.8,253.1z"/>
		<path class="st1" d="M388.5,256.7l13.6,2.8L388.5,256.7c-0.2,1.1-0.6,2.3-1,3.3l12.8,5.4l-12.8-5.4c-0.4,1-1,2-1.6,2.9l11.5,7.7
			l-11.5-7.7c-0.6,1-1.4,1.9-2.2,2.7l9.8,9.8c5.7-5.7,9.2-13.6,9.2-22.3h-13.9C388.9,254.3,388.8,255.5,388.5,256.7z"/>
		<path class="st1" d="M380.9,267.8l7.6,11.6c1.8-1.2,3.5-2.6,5-4.1l-9.8-9.8C382.9,266.4,382,267.2,380.9,267.8z"/>
		<path class="st1" d="M388.6,249.6l13.6-2.7L388.6,249.6c0.2,1.1,0.3,2.3,0.3,3.4h13.9c0-4.2-0.8-8.1-2.3-11.8l-12.9,5.2
			C388,247.5,388.4,248.5,388.6,249.6z"/>
		<path class="st1" d="M377.9,269.4l5.2,12.9c1.9-0.8,3.8-1.7,5.5-2.9l-7.6-11.6C380,268.5,379,269,377.9,269.4z"/>
		<path class="st1" d="M387.6,246.5l12.9-5.2c-0.8-1.9-1.7-3.8-2.9-5.5l-11.6,7.6C386.7,244.4,387.2,245.4,387.6,246.5z"/>
		<path class="st1" d="M367.7,270.3l-2.8,13.6L367.7,270.3c-1.1-0.2-2.3-0.6-3.3-1l-5.4,12.8l5.4-12.8c-1-0.4-2-1-2.9-1.6l-7.7,11.5
			l7.7-11.5c-1-0.6-1.9-1.4-2.7-2.2l-9.8,9.8c5.7,5.7,13.6,9.2,22.3,9.2v-13.9C370.1,270.7,368.9,270.6,367.7,270.3z"/>
		<path class="st1" d="M374.7,270.4l2.7,13.6L374.7,270.4c-1.1,0.2-2.3,0.3-3.4,0.3v13.9c4.2,0,8.1-0.8,11.8-2.3l-5.2-12.9
			C376.9,269.8,375.8,270.1,374.7,270.4z"/>
		<path class="st1" d="M356.5,262.7l-11.6,7.6c1.2,1.8,2.6,3.5,4.1,5l9.8-9.8C358,264.7,357.2,263.7,356.5,262.7z"/>
		<path class="st1" d="M354,256.5l-13.6,2.7L354,256.5c-0.2-1.1-0.3-2.3-0.3-3.4h-13.9c0,4.2,0.8,8.1,2.3,11.8l12.9-5.2
			C354.5,258.7,354.2,257.6,354,256.5z"/>
		<path class="st1" d="M354,249.5l-13.6-2.8L354,249.5c0.2-1.1,0.6-2.3,1-3.3l-12.8-5.4l12.8,5.4c0.4-1,1-2,1.6-2.9l-11.5-7.7
			l11.5,7.7c0.6-1,1.4-1.9,2.2-2.7l-9.8-9.8c-5.7,5.7-9.2,13.6-9.2,22.3h13.9C353.7,251.8,353.8,250.6,354,249.5z"/>
		<path class="st1" d="M386,243.4l11.6-7.6c-1.2-1.8-2.6-3.5-4.1-5l-9.8,9.8C384.6,241.5,385.4,242.4,386,243.4z"/>
		<path class="st1" d="M356.5,262.7c-0.6-1-1.2-2-1.6-3.1l-12.9,5.2c0.8,1.9,1.7,3.8,2.9,5.5L356.5,262.7z"/>
		<path class="st1" d="M364.7,236.7l-5.2-12.9c-1.9,0.8-3.8,1.7-5.5,2.9l7.6,11.6C362.6,237.7,363.6,237.2,364.7,236.7z"/>
		<path class="st1" d="M374.9,235.8l2.8-13.6L374.9,235.8c1.1,0.2,2.3,0.6,3.3,1l5.4-12.8l-5.4,12.8c1,0.4,2,1,2.9,1.6l7.7-11.5
			l-7.7,11.5c1,0.6,1.9,1.4,2.7,2.2l9.8-9.8c-5.7-5.7-13.6-9.2-22.3-9.2v13.9C372.5,235.5,373.7,235.6,374.9,235.8z"/>
		<path class="st1" d="M367.8,235.8l-2.7-13.6L367.8,235.8c1.1-0.2,2.3-0.3,3.4-0.3v-13.9c-4.2,0-8.1,0.8-11.8,2.3l5.2,12.9
			C365.7,236.3,366.8,236,367.8,235.8z"/>
		<path class="st1" d="M361.6,238.3l-7.6-11.6c-1.8,1.2-3.5,2.6-5,4.1l9.8,9.8C359.7,239.8,360.6,239,361.6,238.3z"/>
	</g>
</g>
</svg>
